<?xml version="1.0" encoding="UTF-8" standalone="no"?>
<!-- Created with Inkscape (http://www.inkscape.org/) -->

<svg
   width="95.645844mm"
   height="84.204384mm"
   viewBox="0 0 95.645844 84.204384"
   version="1.1"
   id="svg1"
   xmlns="http://www.w3.org/2000/svg"
   xmlns:svg="http://www.w3.org/2000/svg">
  <defs
     id="defs1">
    <clipPath
       clipPathUnits="userSpaceOnUse"
       id="clipPath130">
      <path
         d="M 0,1380.681 H 2000 V 0 H 0 Z"
         transform="translate(-1109.4211,-343.41381)"
         id="path130" />
    </clipPath>
  </defs>
  <g
     id="layer1"
     transform="translate(-55.827081,-96.308309)">
    <path
       id="path129"
       d="m 0,0 -2.971,-2.865 -23.042,23.891 2.971,2.865 c 6.598,6.363 17.104,6.173 23.467,-0.425 C 6.788,16.869 6.597,6.363 0,0 m -37.512,-36.178 -2.97,-2.865 c -6.598,-6.363 -17.104,-6.173 -23.467,0.425 -6.363,6.597 -6.172,17.104 0.425,23.466 l 2.971,2.865 z m -71.184,-19.051 -11.501,48.524 -34.836,9.771 34.836,9.772 11.501,48.523 11.501,-48.523 34.835,-9.772 -34.835,-9.771 z M 23.183,76.647 c -2.775,8.19 -9.266,26.535 -27.962,39.842 -14.277,10.156 -28.743,12.499 -36.097,13.092 -5.603,0.458 -24.245,1.751 -43.236,-9.913 -12.742,-7.812 -19.989,-17.968 -23.652,-24.164 -3.664,6.196 -10.91,16.352 -23.625,24.164 -18.992,11.664 -37.66,10.371 -43.236,9.913 -6.676,-0.536 -19.149,-2.525 -32.014,-10.41 l 16.306,-31.436 -29.402,21.108 c -11.91,-11.981 -16.678,-25.491 -18.95,-32.196 -7.596,-22.466 -3.906,-41.7 -2.37,-49.189 1.562,-7.678 7.623,-32.811 49.566,-73.973 17.429,-17.106 44.395,-40.219 82.378,-61.554 0.431,-0.269 0.889,-0.512 1.347,-0.755 0.458,0.243 0.916,0.486 1.347,0.755 33.667,18.898 58.642,39.187 76.041,55.464 l -4.601,24.323 -20.318,21.067 13.812,13.321 -8.706,46.018 14.818,-40.124 4.1,3.954 23.042,-23.891 -14.585,-14.066 6.267,-16.967 c 35.218,36.697 40.636,59.231 42.101,66.428 1.535,7.489 5.226,26.723 -2.371,49.189"
       style="fill:#d13a29 icc-color(sRGB-IEC61966-2, 0.1, 0.81999207, 0.22698975, 0.16099548);fill-opacity:1;fill-rule:nonzero;stroke:none"
       transform="matrix(0.35277776,0,0,-0.35277776,141.66207,142.12201)"
       clip-path="url(#clipPath130)" />
  </g>
</svg>
